<?xml version="1.0" encoding="UTF-8" standalone="no"?>
<!DOCTYPE svg PUBLIC "-//W3C//DTD SVG 1.1//EN" "http://www.w3.org/Graphics/SVG/1.1/DTD/svg11.dtd">
<svg version="1.1" xmlns="http://www.w3.org/2000/svg" xmlns:xlink="http://www.w3.org/1999/xlink" preserveAspectRatio="xMidYMid meet" viewBox="0 0 256 256" width="256" height="256"><defs><path d="M181.64 123.91L181.83 122.57L182.07 121.26L182.36 119.96L182.71 118.68L183.1 117.42L183.54 116.19L184.02 114.98L184.55 113.79L185.13 112.62L185.75 111.48L186.41 110.37L187.11 109.29L187.85 108.24L188.63 107.21L189.45 106.22L190.31 105.26L191.2 104.33L192.12 103.44L193.08 102.59L194.08 101.77L195.1 100.99L196.15 100.25L197.24 99.54L198.35 98.88L199.49 98.26L200.65 97.69L201.84 97.16L203.05 96.67L204.29 96.23L205.55 95.84L206.82 95.5L208.12 95.21L209.44 94.96L210.77 94.77L212.12 94.64L213.49 94.55L214.86 94.53L214.86 108L213.55 108.04L212.26 108.17L210.99 108.38L209.75 108.66L208.55 109.02L207.37 109.45L206.23 109.96L205.13 110.53L204.07 111.16L203.06 111.86L202.09 112.62L201.17 113.43L200.3 114.3L199.48 115.22L198.73 116.19L198.03 117.21L197.39 118.27L196.82 119.37L196.32 120.51L195.88 121.68L195.52 122.89L195.24 124.13L195.03 125.39L194.91 126.69L194.86 128L181.39 128L181.42 126.62L181.5 125.26L181.64 123.91Z" id="a2fLSkhAPW"></path><path d="M181 179.65L179.9 180.41L178.77 181.12L177.62 181.79L176.46 182.4L175.27 182.96L174.07 183.48L172.86 183.94L171.63 184.36L170.38 184.72L169.13 185.04L167.87 185.31L166.6 185.53L165.32 185.7L164.04 185.83L162.76 185.9L161.47 185.92L160.19 185.9L158.91 185.83L157.63 185.7L156.35 185.53L155.08 185.31L153.82 185.04L152.56 184.72L151.32 184.36L150.09 183.94L148.88 183.48L147.67 182.96L146.49 182.4L145.32 181.79L144.18 181.12L143.05 180.41L141.95 179.65L140.87 178.85L139.82 177.99L138.8 177.08L137.8 176.13L147.33 166.6L148.29 167.5L149.29 168.32L150.34 169.07L151.41 169.75L152.52 170.35L153.66 170.87L154.82 171.32L156 171.69L157.2 171.99L158.41 172.22L159.63 172.37L160.86 172.44L162.09 172.44L163.32 172.37L164.54 172.22L165.75 171.99L166.95 171.69L168.13 171.32L169.29 170.87L170.43 170.35L171.54 169.75L172.61 169.07L173.65 168.32L174.66 167.5L175.62 166.6L185.14 176.13L184.15 177.08L183.13 177.99L182.07 178.85L182.07 178.85L181 179.65Z" id="b15jVB2Th5"></path><path d="M164.22 94.64L165.57 94.77L166.9 94.96L168.22 95.21L169.51 95.5L170.79 95.84L172.05 96.23L173.29 96.67L174.5 97.16L175.69 97.69L176.85 98.26L177.99 98.88L179.1 99.54L180.19 100.25L181.24 100.99L182.26 101.77L183.25 102.59L184.21 103.44L185.14 104.33L186.03 105.26L186.89 106.22L187.71 107.21L188.49 108.24L189.23 109.29L189.93 110.37L190.59 111.48L191.21 112.62L191.79 113.79L192.32 114.98L192.8 116.19L193.24 117.42L193.63 118.68L193.98 119.96L194.27 121.26L194.51 122.57L194.7 123.91L194.84 125.26L194.92 126.62L194.95 128L194.92 129.38L194.84 130.74L194.7 132.09L194.51 133.43L194.27 134.74L193.98 136.04L193.63 137.32L193.24 138.58L192.8 139.81L192.32 141.02L191.79 142.21L191.21 143.38L190.59 144.52L189.93 145.63L189.23 146.71L188.49 147.76L187.71 148.79L186.89 149.78L186.03 150.74L185.14 151.67L184.21 152.56L183.25 153.41L182.26 154.23L181.24 155.01L180.19 155.75L179.1 156.46L177.99 157.12L176.85 157.74L175.69 158.31L174.5 158.84L173.29 159.33L172.05 159.77L170.79 160.16L169.51 160.5L168.22 160.79L166.9 161.04L165.57 161.23L164.22 161.36L162.85 161.45L161.47 161.47L160.1 161.45L158.73 161.36L157.38 161.23L156.05 161.04L154.73 160.79L153.43 160.5L152.16 160.16L150.9 159.77L149.66 159.33L148.45 158.84L147.26 158.31L146.1 157.74L144.96 157.12L143.85 156.46L142.76 155.75L141.71 155.01L140.69 154.23L139.69 153.41L138.74 152.56L137.81 151.67L136.92 150.74L136.06 149.78L135.24 148.79L134.46 147.76L133.72 146.71L133.02 145.63L132.36 144.52L131.74 143.38L131.16 142.21L130.63 141.02L130.15 139.81L129.71 138.58L129.32 137.32L128.97 136.04L128.68 134.74L128.44 133.43L128.25 132.09L128.11 130.74L128.03 129.38L128 128L128.03 126.62L128.11 125.26L128.25 123.91L128.44 122.57L128.68 121.26L128.97 119.96L129.32 118.68L129.71 117.42L130.15 116.19L130.63 114.98L131.16 113.79L131.74 112.62L132.36 111.48L133.02 110.37L133.72 109.29L134.46 108.24L135.24 107.21L136.06 106.22L136.92 105.26L137.81 104.33L138.74 103.44L139.69 102.59L140.69 101.77L141.71 100.99L142.76 100.25L143.85 99.54L144.96 98.88L146.1 98.26L147.26 97.69L148.45 97.16L149.66 96.67L150.9 96.23L152.16 95.84L153.43 95.5L154.73 95.21L156.05 94.96L157.38 94.77L158.73 94.64L160.1 94.55L161.47 94.53L162.85 94.55L164.22 94.64ZM158.87 108.17L157.6 108.38L156.36 108.66L155.16 109.02L153.98 109.45L152.84 109.96L151.74 110.53L150.68 111.16L149.67 111.86L148.7 112.62L147.78 113.43L146.91 114.3L146.09 115.22L145.34 116.19L144.64 117.21L144 118.27L143.43 119.37L142.93 120.51L142.49 121.68L142.13 122.89L141.85 124.13L141.64 125.39L141.52 126.69L141.47 128L141.52 129.31L141.64 130.61L141.85 131.87L142.13 133.11L142.49 134.32L142.93 135.49L143.43 136.63L144 137.73L144.64 138.79L145.34 139.81L146.09 140.78L146.91 141.7L147.78 142.57L148.7 143.38L149.67 144.14L150.68 144.84L151.74 145.47L152.84 146.04L153.98 146.55L155.16 146.98L156.36 147.34L157.6 147.62L158.87 147.83L160.16 147.96L161.47 148L162.79 147.96L164.08 147.83L165.35 147.62L166.59 147.34L167.79 146.98L168.97 146.55L170.11 146.04L171.21 145.47L172.27 144.84L173.28 144.14L174.25 143.38L175.17 142.57L176.04 141.7L176.86 140.78L177.61 139.81L178.31 138.79L178.95 137.73L179.52 136.63L180.02 135.49L180.45 134.32L180.81 133.11L181.1 131.87L181.31 130.61L181.43 129.31L181.47 128L181.43 126.69L181.31 125.39L181.1 124.13L180.81 122.89L180.45 121.68L180.02 120.51L179.52 119.37L178.95 118.27L178.31 117.21L177.61 116.19L176.86 115.22L176.04 114.3L175.17 113.43L174.25 112.62L173.28 111.86L172.27 111.16L171.21 110.53L170.11 109.96L168.97 109.45L167.79 109.02L166.59 108.66L165.35 108.38L164.08 108.17L162.79 108.04L161.47 108L160.16 108.04L158.87 108.17Z" id="aQtn4LqUZ"></path><path d="M108.77 94.64L110.12 94.77L111.45 94.96L112.77 95.21L114.07 95.5L115.34 95.84L116.6 96.23L117.84 96.67L119.05 97.16L120.24 97.69L121.4 98.26L122.54 98.88L123.65 99.54L124.74 100.25L125.79 100.99L126.81 101.77L127.8 102.59L128.76 103.44L129.69 104.33L130.58 105.26L131.44 106.22L132.26 107.21L133.04 108.24L133.78 109.29L134.48 110.37L135.14 111.48L135.76 112.62L136.34 113.79L136.87 114.98L137.35 116.19L137.79 117.42L138.18 118.68L138.53 119.96L138.82 121.26L139.06 122.57L139.25 123.91L139.39 125.26L139.47 126.62L139.5 128L139.47 129.38L139.39 130.74L139.25 132.09L139.06 133.43L138.82 134.74L138.53 136.04L138.18 137.32L137.79 138.58L137.35 139.81L136.87 141.02L136.34 142.21L135.76 143.38L135.14 144.52L134.48 145.63L133.78 146.71L133.04 147.76L132.26 148.79L131.44 149.78L130.58 150.74L129.69 151.67L128.76 152.56L127.8 153.41L126.81 154.23L125.79 155.01L124.74 155.75L123.65 156.46L122.54 157.12L121.4 157.74L120.24 158.31L119.05 158.84L117.84 159.33L116.6 159.77L115.34 160.16L114.07 160.5L112.77 160.79L111.45 161.04L110.12 161.23L108.77 161.36L107.4 161.45L106.02 161.47L104.65 161.45L103.28 161.36L101.93 161.23L100.6 161.04L99.28 160.79L97.98 160.5L96.71 160.16L95.45 159.77L94.21 159.33L93 158.84L91.81 158.31L90.65 157.74L89.51 157.12L88.4 156.46L87.31 155.75L86.26 155.01L85.24 154.23L84.24 153.41L83.29 152.56L82.36 151.67L81.47 150.74L80.61 149.78L79.79 148.79L79.01 147.76L78.27 146.71L77.57 145.63L76.91 144.52L76.29 143.38L75.71 142.21L75.18 141.02L74.7 139.81L74.26 138.58L73.87 137.32L73.52 136.04L73.23 134.74L72.99 133.43L72.8 132.09L72.66 130.74L72.58 129.38L72.55 128L72.58 126.62L72.66 125.26L72.8 123.91L72.99 122.57L73.23 121.26L73.52 119.96L73.87 118.68L74.26 117.42L74.7 116.19L75.18 114.98L75.71 113.79L76.29 112.62L76.91 111.48L77.57 110.37L78.27 109.29L79.01 108.24L79.79 107.21L80.61 106.22L81.47 105.26L82.36 104.33L83.29 103.44L84.24 102.59L85.24 101.77L86.26 100.99L87.31 100.25L88.4 99.54L89.51 98.88L90.65 98.26L91.81 97.69L93 97.16L94.21 96.67L95.45 96.23L96.71 95.84L97.98 95.5L99.28 95.21L100.6 94.96L101.93 94.77L103.28 94.64L104.65 94.55L106.02 94.53L107.4 94.55L108.77 94.64ZM103.42 108.17L102.15 108.38L100.91 108.66L99.71 109.02L98.53 109.45L97.39 109.96L96.29 110.53L95.23 111.16L94.22 111.86L93.25 112.62L92.33 113.43L91.46 114.3L90.64 115.22L89.89 116.19L89.19 117.21L88.55 118.27L87.98 119.37L87.48 120.51L87.05 121.68L86.68 122.89L86.4 124.13L86.19 125.39L86.07 126.69L86.02 128L86.07 129.31L86.19 130.61L86.4 131.87L86.68 133.11L87.05 134.32L87.48 135.49L87.98 136.63L88.55 137.73L89.19 138.79L89.89 139.81L90.64 140.78L91.46 141.7L92.33 142.57L93.25 143.38L94.22 144.14L95.23 144.84L96.29 145.47L97.39 146.04L98.53 146.55L99.71 146.98L100.91 147.34L102.15 147.62L103.42 147.83L104.71 147.96L106.02 148L107.34 147.96L108.63 147.83L109.9 147.62L111.14 147.34L112.34 146.98L113.52 146.55L114.66 146.04L115.76 145.47L116.82 144.84L117.83 144.14L118.8 143.38L119.72 142.57L120.59 141.7L121.41 140.78L122.16 139.81L122.86 138.79L123.5 137.73L124.07 136.63L124.57 135.49L125 134.32L125.36 133.11L125.65 131.87L125.86 130.61L125.98 129.31L126.02 128L125.98 126.69L125.86 125.39L125.65 124.13L125.36 122.89L125 121.68L124.57 120.51L124.07 119.37L123.5 118.27L122.86 117.21L122.16 116.19L121.41 115.22L120.59 114.3L119.72 113.43L118.8 112.62L117.83 111.86L116.82 111.16L115.76 110.53L114.66 109.96L113.52 109.45L112.34 109.02L111.14 108.66L109.9 108.38L108.63 108.17L107.34 108.04L106.02 108L104.71 108.04L103.42 108.17Z" id="cF3z6HrU5"></path><path d="M64.62 146.48L64.82 147.75L65.11 148.99L65.47 150.2L65.9 151.37L66.4 152.51L66.98 153.61L67.61 154.67L68.31 155.69L69.07 156.66L69.88 157.58L70.75 158.45L71.67 159.26L72.64 160.02L73.66 160.71L74.71 161.35L75.82 161.92L76.95 162.42L78.13 162.86L79.34 163.22L80.58 163.5L81.84 163.71L83.13 163.84L84.45 163.88L84.45 177.35L83.07 177.32L81.7 177.24L80.35 177.1L79.02 176.91L77.71 176.67L76.41 176.38L75.13 176.04L73.87 175.64L72.64 175.21L71.42 174.72L70.23 174.19L69.07 173.61L67.93 173L66.82 172.33L65.74 171.63L64.68 170.89L63.66 170.11L62.67 169.29L61.71 168.43L60.78 167.54L59.89 166.62L59.04 165.66L58.22 164.67L57.44 163.64L56.69 162.59L55.99 161.51L55.33 160.39L54.71 159.26L54.14 158.09L53.61 156.9L53.12 155.69L52.68 154.45L52.29 153.2L51.95 151.92L51.65 150.62L51.41 149.3L51.22 147.97L51.08 146.62L51 145.26L50.97 143.88L64.45 143.88L64.49 145.19L64.62 146.48ZM50.97 143.88L50.97 69.9L64.35 69.9L64.35 143.88L50.97 143.88Z" id="cPiNzKZN7"></path></defs><g><g><g><use xlink:href="#a2fLSkhAPW" opacity="1" fill="#000000" fill-opacity="1"></use></g><g><use xlink:href="#b15jVB2Th5" opacity="1" fill="#000000" fill-opacity="1"></use></g><g><use xlink:href="#aQtn4LqUZ" opacity="1" fill="#000000" fill-opacity="1"></use></g><g><use xlink:href="#cF3z6HrU5" opacity="1" fill="#000000" fill-opacity="1"></use></g><g><use xlink:href="#cPiNzKZN7" opacity="1" fill="#000000" fill-opacity="1"></use></g></g></g></svg>